<?xml version="1.0" encoding="UTF-8"?>
<svg width="120" height="24" viewBox="0 0 120 24" fill="none" xmlns="http://www.w3.org/2000/svg">
  <path d="M13.2 4.8C11.52 4.8 10.08 5.28 8.88 6.24C7.68 7.2 6.96 8.4 6.72 9.84H19.68C19.44 8.4 18.72 7.2 17.52 6.24C16.32 5.28 14.88 4.8 13.2 4.8ZM0 12C0 9.36 0.72 7.08 2.16 5.16C3.6 3.24 5.52 1.8 7.92 0.84C10.32 0.28 12.72 0 15.12 0C17.52 0 19.68 0.48 21.6 1.44C23.52 2.4 25.08 3.72 26.28 5.4C27.48 7.08 28.08 9 28.08 11.16C28.08 11.64 28.08 12.12 28.08 12.6C28.08 13.08 28.08 13.56 28.08 14.04H6.72C6.96 15.48 7.68 16.68 8.88 17.64C10.08 18.6 11.52 19.08 13.2 19.08C14.4 19.08 15.48 18.84 16.44 18.36C17.4 17.88 18.12 17.16 18.6 16.2H27.36C26.88 18.12 25.92 19.8 24.48 21.24C23.04 22.68 21.36 23.76 19.44 24.48C17.52 25.2 15.48 25.56 13.32 25.56C10.68 25.56 8.28 24.96 6.12 23.76C3.96 22.56 2.28 20.88 1.08 18.72C0.36 16.56 0 14.4 0 12Z" fill="#1a73e8"/>
  <path d="M31.2 0.6H39.36V25.08H31.2V0.6Z" fill="#1a73e8"/>
  <path d="M43.2 12C43.2 9.36 43.92 7.08 45.36 5.16C46.8 3.24 48.72 1.8 51.12 0.84C53.52 0.28 55.92 0 58.32 0C60.72 0 62.88 0.48 64.8 1.44C66.72 2.4 68.28 3.72 69.48 5.4C70.68 7.08 71.28 9 71.28 11.16C71.28 11.64 71.28 12.12 71.28 12.6C71.28 13.08 71.28 13.56 71.28 14.04H49.92C50.16 15.48 50.88 16.68 52.08 17.64C53.28 18.6 54.72 19.08 56.4 19.08C57.6 19.08 58.68 18.84 59.64 18.36C60.6 17.88 61.32 17.16 61.8 16.2H70.56C70.08 18.12 69.12 19.8 67.68 21.24C66.24 22.68 64.56 23.76 62.64 24.48C60.72 25.2 58.68 25.56 56.52 25.56C53.88 25.56 51.48 24.96 49.32 23.76C47.16 22.56 45.48 20.88 44.28 18.72C43.56 16.56 43.2 14.4 43.2 12ZM56.4 4.8C54.72 4.8 53.28 5.28 52.08 6.24C50.88 7.2 50.16 8.4 49.92 9.84H62.88C62.64 8.4 61.92 7.2 60.72 6.24C59.52 5.28 58.08 4.8 56.4 4.8Z" fill="#1a73e8"/>
  <path d="M74.4 0.6H82.56V25.08H74.4V0.6Z" fill="#1a73e8"/>
  <path d="M86.4 12C86.4 9.36 87.12 7.08 88.56 5.16C90 3.24 91.92 1.8 94.32 0.84C96.72 0.28 99.12 0 101.52 0C103.92 0 106.08 0.48 108 1.44C109.92 2.4 111.48 3.72 112.68 5.4C113.88 7.08 114.48 9 114.48 11.16C114.48 11.64 114.48 12.12 114.48 12.6C114.48 13.08 114.48 13.56 114.48 14.04H93.12C93.36 15.48 94.08 16.68 95.28 17.64C96.48 18.6 97.92 19.08 99.6 19.08C100.8 19.08 101.88 18.84 102.84 18.36C103.8 17.88 104.52 17.16 105 16.2H113.76C113.28 18.12 112.32 19.8 110.88 21.24C109.44 22.68 107.76 23.76 105.84 24.48C103.92 25.2 101.88 25.56 99.72 25.56C97.08 25.56 94.68 24.96 92.52 23.76C90.36 22.56 88.68 20.88 87.48 18.72C86.76 16.56 86.4 14.4 86.4 12ZM99.6 4.8C97.92 4.8 96.48 5.28 95.28 6.24C94.08 7.2 93.36 8.4 93.12 9.84H106.08C105.84 8.4 105.12 7.2 103.92 6.24C102.72 5.28 101.28 4.8 99.6 4.8Z" fill="#1a73e8"/>
</svg>
